<?xml version="1.0" encoding="utf-8"?>
<!-- Generator: Adobe Illustrator 16.0.0, SVG Export Plug-In . SVG Version: 6.00 Build 0)  -->
<!DOCTYPE svg PUBLIC "-//W3C//DTD SVG 1.1//EN" "http://www.w3.org/Graphics/SVG/1.1/DTD/svg11.dtd">
<svg version="1.1" id="Capa_1" xmlns="http://www.w3.org/2000/svg" xmlns:xlink="http://www.w3.org/1999/xlink" x="0px" y="0px"
	 width="48px" height="48px" viewBox="24.14 19.223 48 48" enable-background="new 24.14 19.223 48 48" xml:space="preserve">
<g>
	<g>
		<path fill="#FFFFFF" d="M63.714,20.218H32.58c-4.64,0-8.406,3.779-8.406,8.406v19.205c0,4.64,3.766,8.406,8.406,8.406h19.823
			l9.496,9.495c0.322,0.323,0.753,0.498,1.183,0.498c0.215,0,0.431-0.04,0.646-0.134c0.632-0.256,1.036-0.874,1.036-1.546v-8.366
			c4.143-0.524,7.343-4.062,7.343-8.338V28.624C72.12,23.998,68.341,20.218,63.714,20.218z M68.757,47.829
			c0,2.784-2.259,5.043-5.043,5.043h-0.619c-0.928,0-1.681,0.753-1.681,1.682v5.931L54.3,53.37
			c-0.309-0.309-0.739-0.498-1.183-0.498H32.58c-2.784,0-5.044-2.259-5.044-5.043V28.624c0-2.784,2.26-5.043,5.044-5.043h31.134
			c2.784,0,5.043,2.26,5.043,5.043V47.829z"/>
		<path fill="#FFFFFF" d="M48.544,32.121H33.212c-0.928,0-1.681,0.753-1.681,1.681c0,0.928,0.753,1.681,1.681,1.681h15.332
			c0.928,0,1.681-0.752,1.681-1.681C50.224,32.874,49.471,32.121,48.544,32.121z"/>
		<path fill="#FFFFFF" d="M61.993,41.535H33.212c-0.928,0-1.681,0.753-1.681,1.681c0,0.928,0.753,1.681,1.681,1.681h28.781
			c0.928,0,1.681-0.753,1.681-1.681C63.674,42.288,62.921,41.535,61.993,41.535z"/>
	</g>
</g>
</svg>
