<?xml version="1.0" encoding="utf-8"?>
<!-- Generator: Adobe Illustrator 16.0.0, SVG Export Plug-In . SVG Version: 6.00 Build 0)  -->
<!DOCTYPE svg PUBLIC "-//W3C//DTD SVG 1.1//EN" "http://www.w3.org/Graphics/SVG/1.1/DTD/svg11.dtd">
<svg version="1.1" id="Capa_1" xmlns="http://www.w3.org/2000/svg" xmlns:xlink="http://www.w3.org/1999/xlink" x="0px" y="0px"
	 width="48px" height="48px" viewBox="24.14 19.223 48 48" enable-background="new 24.14 19.223 48 48" xml:space="preserve">
<g>
	<g>
		<path fill="#FFFFFF" d="M69.495,62.8H26.531c-1.317,0-2.379,1.054-2.379,2.336v-0.358c0,1.293,1.073,2.335,2.379,2.335h42.953
			c1.317,0,2.379-1.054,2.379-2.335v0.358C71.885,63.843,70.801,62.8,69.495,62.8z"/>
	</g>
</g>
<g>
	<path fill="#FFFFFF" d="M62.921,40.028c-0.83-0.815-2.169-0.815-2.999,0l-8.744,9.756V21.298c0-1.152-0.952-2.075-2.114-2.075
		c-1.173,0-2.114,0.935-2.114,2.075v28.487l-8.5-9.756c-0.83-0.815-3.387-1.032-4.217-0.217s-0.83,2.129,0,2.944L47.327,56.51
		c0.41,0.402,0.952,0.608,1.494,0.608c0.542,0,1.085-0.207,1.494-0.608l12.606-13.548C63.751,42.158,63.751,40.832,62.921,40.028z"
		/>
</g>
<g>
	<g>
		<path fill="#FFFFFF" d="M28.534,66.896V56.662c0-0.185-1.074-0.326-2.38-0.326h0.365c-1.317,0-2.379,0.152-2.379,0.326v10.234
			c0,0.185,1.074,0.326,2.379,0.326h-0.365C27.482,67.233,28.534,67.081,28.534,66.896z"/>
	</g>
</g>
<g>
	<g>
		<path fill="#FFFFFF" d="M72.14,66.788V56.553c0-0.185-1.074-0.326-2.379-0.326h0.365c-1.317,0-2.379,0.152-2.379,0.326v10.234
			c0,0.185,1.073,0.326,2.379,0.326H69.76C71.089,67.125,72.14,66.972,72.14,66.788z"/>
	</g>
</g>
</svg>
